<svg width="14" height="14" viewBox="0 0 14 14" fill="none" xmlns="http://www.w3.org/2000/svg">
<path fill-rule="evenodd" clip-rule="evenodd" d="M3.79167 2.91675C3.79167 2.59458 4.05283 2.33341 4.375 2.33341C4.69717 2.33341 4.95833 2.59458 4.95833 2.91675C4.95833 3.23891 4.69717 3.50008 4.375 3.50008C4.05283 3.50008 3.79167 3.23891 3.79167 2.91675ZM4.375 1.16675C3.4085 1.16675 2.625 1.95025 2.625 2.91675C2.625 3.67871 3.11197 4.32693 3.79167 4.56717V9.43299C3.11197 9.67323 2.625 10.3215 2.625 11.0834C2.625 12.0499 3.4085 12.8334 4.375 12.8334C5.3415 12.8334 6.125 12.0499 6.125 11.0834C6.125 10.3215 5.63803 9.67323 4.95833 9.43299V8.75162C4.96097 8.74121 4.97493 8.70542 5.03675 8.64011C5.13058 8.54099 5.28991 8.42291 5.52982 8.28613C5.8986 8.07586 6.35797 7.87451 6.87363 7.64849C7.0384 7.57627 7.20891 7.50154 7.38405 7.42318C8.07626 7.11351 8.82837 6.75166 9.40975 6.29777C9.94566 5.87939 10.4195 5.31645 10.4908 4.57041C11.1753 4.3328 11.6667 3.68216 11.6667 2.91675C11.6667 1.95025 10.8832 1.16675 9.91667 1.16675C8.95017 1.16675 8.16667 1.95025 8.16667 2.91675C8.16667 3.67097 8.64379 4.31375 9.31267 4.55972C9.25327 4.82209 9.06205 5.08912 8.69181 5.37817C8.23413 5.73548 7.60082 6.04811 6.90762 6.35823C6.75782 6.42524 6.60399 6.49261 6.44921 6.5604C5.92246 6.79108 5.38479 7.02655 4.95833 7.269V4.56717C5.63803 4.32693 6.125 3.67871 6.125 2.91675C6.125 1.95025 5.3415 1.16675 4.375 1.16675ZM4.95783 8.75485C4.95773 8.75486 4.95782 8.75369 4.95833 8.75162C4.95824 8.75364 4.95794 8.75484 4.95783 8.75485ZM9.33333 2.91675C9.33333 2.59458 9.5945 2.33341 9.91667 2.33341C10.2388 2.33341 10.5 2.59458 10.5 2.91675C10.5 3.23891 10.2388 3.50008 9.91667 3.50008C9.5945 3.50008 9.33333 3.23891 9.33333 2.91675ZM4.375 10.5001C4.05283 10.5001 3.79167 10.7612 3.79167 11.0834C3.79167 11.4056 4.05283 11.6667 4.375 11.6667C4.69717 11.6667 4.95833 11.4056 4.95833 11.0834C4.95833 10.7612 4.69717 10.5001 4.375 10.5001Z" fill="#4E5969"/>
</svg>
