<svg width="16" height="16" viewBox="0 0 16 16" fill="none" xmlns="http://www.w3.org/2000/svg">
<path fill-rule="evenodd" clip-rule="evenodd" d="M8 2.66659C5.05448 2.66659 2.66667 5.0544 2.66667 7.99992C2.66667 10.9454 5.05448 13.3333 8 13.3333C10.9455 13.3333 13.3333 10.9454 13.3333 7.99992C13.3333 5.0544 10.9455 2.66659 8 2.66659ZM1.33334 7.99992C1.33334 4.31802 4.3181 1.33325 8 1.33325C11.6819 1.33325 14.6667 4.31802 14.6667 7.99992C14.6667 11.6818 11.6819 14.6666 8 14.6666C4.3181 14.6666 1.33334 11.6818 1.33334 7.99992ZM9.21499 6.79033L7.56048 7.56244L6.78837 9.21696L8.44289 8.44485L9.21499 6.79033ZM10.1463 4.88433C10.767 4.59471 11.4106 5.23837 11.121 5.85898L9.4461 9.44806L5.85701 11.123C5.2364 11.4126 4.59275 10.7689 4.88236 10.1483L6.55727 6.55923L10.1463 4.88433Z" fill=""/>
</svg>
