<svg xmlns="http://www.w3.org/2000/svg" width="13" height="12" viewBox="0 0 13 12" fill="none">
  <path fill-rule="evenodd" clip-rule="evenodd" d="M3.44554 7.94454C3.05501 8.33506 3.05501 8.96822 3.44554 9.35875C3.83606 9.74927 4.46923 9.74927 4.85975 9.35875L6.98107 7.23743C7.3716 6.8469 7.3716 6.21374 6.98107 5.82322L7.68818 5.11611C8.46923 5.89716 8.46923 7.16349 7.68818 7.94454L5.56686 10.0659C4.78581 10.8469 3.51948 10.8469 2.73843 10.0659C1.95738 9.28481 1.95738 8.01848 2.73843 7.23743L3.97587 5.99999L4.68298 6.7071L3.44554 7.94454ZM5.92041 6.88387C5.13936 6.10283 5.13936 4.8365 5.92041 4.05545L8.04173 1.93413C8.82278 1.15308 10.0891 1.15308 10.8702 1.93413C11.6512 2.71518 11.6512 3.98151 10.8702 4.76255L9.63272 5.99999L8.92562 5.29289L10.1631 4.05545C10.5536 3.66492 10.5536 3.03176 10.1631 2.64123C9.77253 2.25071 9.13936 2.25071 8.74884 2.64123L6.62752 4.76255C6.237 5.15308 6.237 5.78624 6.62752 6.17677L5.92041 6.88387Z" fill="#C9CDD4"/>
</svg>