<svg xmlns="http://www.w3.org/2000/svg" width="16" height="16" viewBox="0 0 16 16" fill="none">
  <path fill-rule="evenodd" clip-rule="evenodd" d="M4.6665 4.83333C4.6665 2.99238 6.15889 1.5 7.99984 1.5C9.84079 1.5 11.3332 2.99238 11.3332 4.83333V5.16667H12.9998C13.7362 5.16667 14.3332 5.76362 14.3332 6.5V13.1667C14.3332 13.903 13.7362 14.5 12.9998 14.5H2.99984C2.26346 14.5 1.6665 13.903 1.6665 13.1667V6.5C1.6665 5.76362 2.26346 5.16667 2.99984 5.16667H4.6665V4.83333ZM5.99984 5.16667H9.99984V4.83333C9.99984 3.72876 9.10441 2.83333 7.99984 2.83333C6.89527 2.83333 5.99984 3.72876 5.99984 4.83333V5.16667ZM2.99984 6.5V13.1667H12.9998V6.5H2.99984ZM7.99984 9.16667C7.63165 9.16667 7.33317 9.46514 7.33317 9.83333C7.33317 10.2015 7.63165 10.5 7.99984 10.5C8.36803 10.5 8.6665 10.2015 8.6665 9.83333C8.6665 9.46514 8.36803 9.16667 7.99984 9.16667ZM5.99984 9.83333C5.99984 8.72876 6.89527 7.83333 7.99984 7.83333C9.10441 7.83333 9.99984 8.72876 9.99984 9.83333C9.99984 10.9379 9.10441 11.8333 7.99984 11.8333C6.89527 11.8333 5.99984 10.9379 5.99984 9.83333Z" fill="#4E5969"/>
</svg>