<svg xmlns="http://www.w3.org/2000/svg" width="16" height="16" viewBox="0 0 16 16" fill="none">
  <path fill-rule="evenodd" clip-rule="evenodd" d="M8.66699 1V2.70793C11.2979 3.03599 13.3337 5.28025 13.3337 8C13.3337 9.45296 12.7518 10.7713 11.8098 11.7326L10.8575 10.7994C11.5651 10.0773 12.0003 9.09012 12.0003 8C12.0003 6.018 10.5588 4.37269 8.66699 4.05531V5.66667L5.55588 3.33333L8.66699 1ZM5.14315 5.20061C4.43552 5.92274 4.00033 6.90988 4.00033 8C4.00033 9.982 5.44185 11.6273 7.33366 11.9447V10L10.4448 12.3333L7.33366 14.6667V13.2921C4.70278 12.964 2.66699 10.7197 2.66699 8C2.66699 6.54704 3.24888 5.22866 4.19083 4.26741L5.14315 5.20061Z" fill="#6AA1FF"/>
</svg>