<svg width="16" height="16" viewBox="0 0 16 16" fill="none" xmlns="http://www.w3.org/2000/svg">
<g clip-path="url(#clip0_270980_4681)">
<path fill-rule="evenodd" clip-rule="evenodd" d="M12.7932 6.03534L11.3787 7.44985C10.9882 7.84038 10.355 7.84038 9.96448 7.44986L8.55027 6.03564C8.15974 5.64512 8.15974 5.01195 8.55027 4.62143L9.96479 3.20691C8.96176 3.06439 7.90676 3.37932 7.13605 4.15002C6.11053 5.17555 5.89203 6.70446 6.48434 7.94436L6.68755 8.36976L3.12912 11.9282L4.07193 12.871L7.63036 9.31257L8.05577 9.51579C9.29566 10.1081 10.8246 9.88959 11.8501 8.86407C12.6208 8.09337 12.9357 7.03837 12.7932 6.03534ZM12.5986 4.3443C12.9397 4.00323 13.5222 4.09975 13.7284 4.54489C14.5272 6.26958 14.2167 8.3831 12.7929 9.80688C11.476 11.1238 9.5689 11.4884 7.92515 10.9034L4.77903 14.0495C4.38851 14.44 3.75534 14.44 3.36482 14.0495L1.9506 12.6353C1.56008 12.2448 1.56008 11.6116 1.9506 11.2211L5.09673 8.07497C4.51175 6.43123 4.87629 4.52417 6.19325 3.20721C7.61703 1.78343 9.73054 1.47288 11.4552 2.27173C11.9004 2.47791 11.9969 3.06041 11.6558 3.40149L9.72878 5.32853L10.6716 6.27134L12.5986 4.3443Z" fill=""/>
</g>
<defs>
<clipPath id="clip0_270980_4681">
<rect width="16" height="16" fill="white"/>
</clipPath>
</defs>
</svg>
